Coordinates
version=1
nRows=32
nColumns=12
inDegrees=yes

Units are S.I. units (second, meters, Newtons, ...)
Angles are in degrees

endheader
time	SC_y	SC_z	SC_x	AC_y	AC_z	AC_x	GH_y	GH_z	GH_yy	EL_x	PS_y
       0.0              -27.81        -0.2274          39.72           39.3         -7.691         -14.53          81.75           61.8         -104.2          36.93          156.8
   0.02101              -27.81        -0.2253          39.72           39.3         -7.691         -14.52          81.72           61.8         -104.2          36.95          156.8
   0.04203              -27.81         -0.223          39.71          39.31         -7.691         -14.52          81.68           61.8         -104.1          36.96          156.8
   0.06304              -27.81        -0.2206          39.71          39.31         -7.691         -14.52          81.64           61.8         -104.1          36.98          156.8
   0.08406              -27.81        -0.2181          39.71          39.31         -7.691         -14.52           81.6          61.79         -104.1           37.0          156.7
    0.1051              -27.81        -0.2153           39.7          39.32         -7.691         -14.52          81.55          61.79         -104.0          37.01          156.7
    0.1261              -27.82        -0.2124           39.7          39.32         -7.692         -14.52           81.5          61.79         -104.0          37.03          156.7
    0.1471              -27.82        -0.2093          39.69          39.33         -7.692         -14.51          81.45          61.79         -103.9          37.06          156.7
    0.1681              -27.82        -0.2059          39.69          39.33         -7.692         -14.51          81.39          61.78         -103.9          37.08          156.6
    0.1891              -27.82        -0.2024          39.68          39.34         -7.692         -14.51          81.33          61.78         -103.8           37.1          156.6
    0.2101              -27.82        -0.1985          39.68          39.34         -7.692          -14.5          81.26          61.78         -103.8          37.13          156.6
    0.2312              -27.82        -0.1944          39.67          39.35         -7.693          -14.5          81.19          61.77         -103.7          37.16          156.5
    0.2522              -27.82        -0.1899          39.66          39.36         -7.693          -14.5          81.12          61.77         -103.7          37.19          156.5
    0.2732              -27.82        -0.1851          39.66          39.37         -7.693          -14.5          81.04          61.77         -103.6          37.22          156.5
    0.2942              -27.82        -0.1799          39.65          39.37         -7.693         -14.49          80.95          61.76         -103.5          37.26          156.4
    0.3152              -27.82        -0.1742          39.64          39.38         -7.694         -14.49          80.85          61.76         -103.4           37.3          156.4
    0.3362              -27.82        -0.1681          39.63          39.39         -7.694         -14.48          80.75          61.75         -103.4          37.34          156.3
    0.3572              -27.82        -0.1614          39.62           39.4         -7.694         -14.48          80.63          61.75         -103.3          37.38          156.3
    0.3783              -27.82         -0.154          39.61          39.41         -7.695         -14.47          80.51          61.74         -103.2          37.43          156.2
    0.3993              -27.82         -0.146           39.6          39.43         -7.695         -14.47          80.37          61.74         -103.0          37.49          156.1
    0.4203              -27.82        -0.1372          39.59          39.44         -7.696         -14.46          80.22          61.73         -102.9          37.55          156.1
    0.4413              -27.82        -0.1275          39.57          39.46         -7.696         -14.45          80.06          61.72         -102.8          37.61          156.0
    0.4623              -27.83        -0.1169          39.56          39.47         -7.697         -14.45          79.88          61.71         -102.6          37.69          155.9
    0.4833              -27.83         -0.105          39.54          39.49         -7.698         -14.44          79.68          61.71         -102.5          37.77          155.8
    0.5043              -27.83       -0.09183          39.52          39.51         -7.698         -14.43          79.45           61.7         -102.3          37.86          155.7
    0.5254              -27.83       -0.07714           39.5          39.53         -7.699         -14.42           79.2          61.68         -102.1          37.96          155.5
    0.5464              -27.83       -0.06067          39.47          39.56           -7.7          -14.4          78.92          61.67         -101.8          38.07          155.4
    0.5674              -27.83       -0.04215          39.45          39.59         -7.701         -14.39          78.61          61.66         -101.6           38.2          155.2
    0.5884              -27.84       -0.02122          39.41          39.62         -7.702         -14.38          78.26          61.64         -101.3          38.34          155.1
    0.6094              -27.84        0.00254          39.38          39.66         -7.704         -14.36          77.85          61.62         -100.9           38.5          154.8
    0.6304              -27.84        0.02966          39.34           39.7         -7.705         -14.34          77.39           61.6         -100.6          38.69          154.6
    0.6514              -27.85        0.06078          39.29          39.75         -7.707         -14.32          76.86          61.58         -100.1           38.9          154.3
